<?xml version="1.0" encoding="UTF-8" standalone="no"?>
<!-- Created with Inkscape (http://www.inkscape.org/) -->

<svg
   width="297mm"
   height="210mm"
   viewBox="0 0 297 210"
   version="1.1"
   id="svg385"
   inkscape:version="1.2.1 (0f2f062aeb, 2022-09-21, custom)"
   sodipodi:docname="Cadena_cinematica.svg"
   xmlns:inkscape="http://www.inkscape.org/namespaces/inkscape"
   xmlns:sodipodi="http://sodipodi.sourceforge.net/DTD/sodipodi-0.dtd"
   xmlns="http://www.w3.org/2000/svg"
   xmlns:svg="http://www.w3.org/2000/svg">
  <sodipodi:namedview
     id="namedview387"
     pagecolor="#ffffff"
     bordercolor="#000000"
     borderopacity="0.25"
     inkscape:showpageshadow="2"
     inkscape:pageopacity="0.0"
     inkscape:pagecheckerboard="0"
     inkscape:deskcolor="#d1d1d1"
     inkscape:document-units="mm"
     showgrid="false"
     inkscape:zoom="0.97134925"
     inkscape:cx="676.37876"
     inkscape:cy="292.89156"
     inkscape:window-width="1848"
     inkscape:window-height="1016"
     inkscape:window-x="72"
     inkscape:window-y="27"
     inkscape:window-maximized="1"
     inkscape:current-layer="layer3" />
  <defs
     id="defs382">
    <marker
       style="overflow:visible"
       id="marker1910"
       refX="0"
       refY="0"
       orient="auto-start-reverse"
       inkscape:stockid="RoundedArrow"
       markerWidth="4.8000002"
       markerHeight="4"
       viewBox="0 0 6.1347524 5.9304951"
       inkscape:isstock="true"
       inkscape:collect="always"
       preserveAspectRatio="xMidYMid">
      <path
         transform="scale(0.7)"
         d="m -0.21114562,-4.1055728 6.42229122,3.21114561 a 1,1 90 0 1 0,1.78885438 L -0.21114562,4.1055728 A 1.236068,1.236068 31.717474 0 1 -2,3 v -6 a 1.236068,1.236068 148.28253 0 1 1.78885438,-1.1055728 z"
         style="fill:context-stroke;fill-rule:evenodd;stroke:none"
         id="path1908" />
    </marker>
    <marker
       style="overflow:visible"
       id="marker1844"
       refX="0"
       refY="0"
       orient="auto-start-reverse"
       inkscape:stockid="RoundedArrow"
       markerWidth="4.8000002"
       markerHeight="4"
       viewBox="0 0 6.1347524 5.9304951"
       inkscape:isstock="true"
       inkscape:collect="always"
       preserveAspectRatio="xMidYMid">
      <path
         transform="scale(0.7)"
         d="m -0.21114562,-4.1055728 6.42229122,3.21114561 a 1,1 90 0 1 0,1.78885438 L -0.21114562,4.1055728 A 1.236068,1.236068 31.717474 0 1 -2,3 v -6 a 1.236068,1.236068 148.28253 0 1 1.78885438,-1.1055728 z"
         style="fill:context-stroke;fill-rule:evenodd;stroke:none"
         id="path1842" />
    </marker>
    <marker
       style="overflow:visible"
       id="marker1796"
       refX="0"
       refY="0"
       orient="auto-start-reverse"
       inkscape:stockid="RoundedArrow"
       markerWidth="4.8000002"
       markerHeight="4"
       viewBox="0 0 6.1347524 5.9304951"
       inkscape:isstock="true"
       inkscape:collect="always"
       preserveAspectRatio="xMidYMid">
      <path
         transform="scale(0.7)"
         d="m -0.21114562,-4.1055728 6.42229122,3.21114561 a 1,1 90 0 1 0,1.78885438 L -0.21114562,4.1055728 A 1.236068,1.236068 31.717474 0 1 -2,3 v -6 a 1.236068,1.236068 148.28253 0 1 1.78885438,-1.1055728 z"
         style="fill:context-stroke;fill-rule:evenodd;stroke:none"
         id="path1794" />
    </marker>
    <marker
       style="overflow:visible"
       id="RoundedArrow"
       refX="0"
       refY="0"
       orient="auto-start-reverse"
       inkscape:stockid="RoundedArrow"
       markerWidth="4.8000002"
       markerHeight="4"
       viewBox="0 0 6.1347524 5.9304951"
       inkscape:isstock="true"
       inkscape:collect="always"
       preserveAspectRatio="xMidYMid">
      <path
         transform="scale(0.7)"
         d="m -0.21114562,-4.1055728 6.42229122,3.21114561 a 1,1 90 0 1 0,1.78885438 L -0.21114562,4.1055728 A 1.236068,1.236068 31.717474 0 1 -2,3 v -6 a 1.236068,1.236068 148.28253 0 1 1.78885438,-1.1055728 z"
         style="fill:context-stroke;fill-rule:evenodd;stroke:none"
         id="path1367" />
    </marker>
    <rect
       x="213.40844"
       y="137.0764"
       width="211.23597"
       height="43.924759"
       id="rect768" />
  </defs>
  <g
     inkscape:label="Eslabones"
     inkscape:groupmode="layer"
     id="layer1"
     transform="translate(-3.0431295,2.4759211)">
    <path
       id="rect18395"
       style="opacity:0.99;fill:#8080ff;stroke:#000000;stroke-width:0.193154;stroke-linecap:butt;stroke-linejoin:round;stroke-dasharray:none;stroke-dashoffset:0;paint-order:normal"
       d="m 184.79223,38.444045 c -4.61745,-3.259133 -10.95845,-2.165503 -14.21757,2.451931 l -0.0698,0.09887 c -3.25912,4.617434 -2.16574,10.958475 2.4517,14.217607 l 42.11493,29.726006 c 4.61743,3.259127 10.95859,2.165606 14.21771,-2.451828 l 0.0698,-0.09887 c 3.25912,-4.617434 2.16559,-10.958584 -2.45185,-14.217711 z m -3.80593,5.743507 a 3.3467922,3.3467922 0 0 1 0.80433,4.664136 3.3467922,3.3467922 0 0 1 -4.66424,0.804478 3.3467922,3.3467922 0 0 1 -0.80438,-4.664393 3.3467922,3.3467922 0 0 1 4.66429,-0.804221 z m 41.88112,29.560972 a 3.3467922,3.3467922 0 0 1 0.80448,4.664246 3.3467922,3.3467922 0 0 1 -4.6644,0.804369 3.3467922,3.3467922 0 0 1 -0.80423,-4.66429 3.3467922,3.3467922 0 0 1 4.66415,-0.804325 z" />
    <path
       id="rect18395-5-3"
       style="opacity:0.99;fill:#ffcc00;stroke:#000000;stroke-width:0.193154;stroke-linecap:butt;stroke-linejoin:round;stroke-dasharray:none;stroke-dashoffset:0;paint-order:normal"
       d="M 100.91033,76.056804 C 95.273082,75.651396 90.408562,79.863368 90.003162,85.50058 l -0.009,0.120693 c -0.4054,5.637219 3.80638,10.501917 9.4436,10.907325 l 51.416248,3.697642 c 5.63721,0.4054 10.50194,-3.806547 10.90733,-9.443771 l 0.009,-0.120756 c 0.40539,-5.637218 -3.80657,-10.501927 -9.4438,-10.907334 z m -0.29192,6.883878 a 3.3467922,3.3467922 0 0 1 3.09804,3.578162 3.3467922,3.3467922 0 0 1 -3.57817,3.098214 3.3467922,3.3467922 0 0 1 -3.098228,-3.578347 3.3467922,3.3467922 0 0 1 3.578358,-3.098029 z m 51.13079,3.677104 a 3.3467922,3.3467922 0 0 1 3.09823,3.57818 3.3467922,3.3467922 0 0 1 -3.57837,3.098211 3.3467922,3.3467922 0 0 1 -3.09803,-3.578339 3.3467922,3.3467922 0 0 1 3.57817,-3.098052 z" />
    <path
       id="rect18395-5"
       style="opacity:0.99;fill:#5fd35f;stroke:#000000;stroke-width:0.193154;stroke-linecap:butt;stroke-linejoin:round;stroke-dasharray:none;stroke-dashoffset:0;paint-order:normal"
       d="m 142.66803,84.766916 c -3.03305,4.769008 -1.6354,11.049998 3.13358,14.083038 l 0.10208,0.06499 c 4.76899,3.033026 11.05004,1.635626 14.08309,-3.133366 l 27.66391,-43.497247 c 3.03304,-4.768985 1.6355,-11.050147 -3.1335,-14.083179 l -0.10217,-0.06495 c -4.76899,-3.033034 -11.05014,-1.635478 -14.08318,3.133518 z m 5.92008,3.524999 a 3.3467922,3.3467922 0 0 1 4.62,-1.02795 3.3467922,3.3467922 0 0 1 1.02811,4.620095 3.3467922,3.3467922 0 0 1 -4.62026,1.028019 3.3467922,3.3467922 0 0 1 -1.02785,-4.620164 z m 27.51033,-43.255764 a 3.3467922,3.3467922 0 0 1 4.6201,-1.028106 3.3467922,3.3467922 0 0 1 1.028,4.620265 3.3467922,3.3467922 0 0 1 -4.62015,1.027856 3.3467922,3.3467922 0 0 1 -1.02795,-4.620015 z" />
    <path
       id="rect18395-5-3-5"
       style="opacity:0.99;fill:#ff0000;stroke:#000000;stroke-width:0.193154;stroke-linecap:butt;stroke-linejoin:round;stroke-dasharray:none;stroke-dashoffset:0;paint-order:normal"
       d="m 110.35726,86.025265 c -0.0235,-5.65176 -4.59236,-10.182694 -10.24409,-10.159227 l -0.121018,1.83e-4 c -5.65173,0.02347 -10.18286,4.592195 -10.1594,10.243925 l 0.21399,51.548594 c 0.0235,5.65172 4.59237,10.18286 10.244098,10.15939 l 0.12109,-1.9e-4 c 5.65173,-0.0235 10.18285,-4.59239 10.15939,-10.24413 z m -6.88618,0.231205 a 3.3467922,3.3467922 0 0 1 -3.3328,3.360588 3.3467922,3.3467922 0 0 1 -3.360768,-3.332793 3.3467922,3.3467922 0 0 1 3.332968,-3.360792 3.3467922,3.3467922 0 0 1 3.3606,3.332997 z m 0.21282,51.2624 a 3.3467922,3.3467922 0 0 1 -3.33281,3.36078 3.3467922,3.3467922 0 0 1 -3.360768,-3.333 3.3467922,3.3467922 0 0 1 3.332968,-3.36059 3.3467922,3.3467922 0 0 1 3.36061,3.33281 z"
       inkscape:label="rect18395-5-3-5" />
  </g>
  <g
     inkscape:groupmode="layer"
     id="layer2"
     inkscape:label="Etiquetas">
    <text
       xml:space="preserve"
       transform="matrix(0.26458333,0,0,0.26458333,-26.827112,113.28865)"
       id="text766"
       style="font-style:normal;font-variant:normal;font-weight:normal;font-stretch:normal;font-size:26.4567px;font-family:FreeMono;-inkscape-font-specification:FreeMono;white-space:pre;shape-inside:url(#rect768);opacity:0.99;fill:#000000;stroke:#000000;stroke-width:2.18835;stroke-linejoin:bevel;paint-order:markers stroke fill"><tspan
         x="213.4082"
         y="161.54862"
         id="tspan2576">Eslab贸n 1</tspan></text>
    <text
       xml:space="preserve"
       style="font-style:normal;font-variant:normal;font-weight:normal;font-stretch:normal;font-size:7px;font-family:FreeMono;-inkscape-font-specification:FreeMono;opacity:0.99;fill:#000000;stroke:#000000;stroke-width:0.579001;stroke-linejoin:bevel;paint-order:markers stroke fill"
       x="78.535446"
       y="51.550682"
       id="text926"><tspan
         sodipodi:role="line"
         id="tspan924"
         style="font-size:7px;stroke-width:0.579"
         x="78.535446"
         y="51.550682">Eslab贸n 2</tspan></text>
    <text
       xml:space="preserve"
       style="font-style:normal;font-variant:normal;font-weight:normal;font-stretch:normal;font-size:7px;font-family:FreeMono;-inkscape-font-specification:FreeMono;opacity:0.99;fill:#000000;stroke:#000000;stroke-width:0.579001;stroke-linejoin:bevel;paint-order:markers stroke fill"
       x="162.10475"
       y="119.62189"
       id="text930"><tspan
         sodipodi:role="line"
         id="tspan928"
         style="font-size:7px;stroke-width:0.579"
         x="162.10475"
         y="119.62189">Eslab贸n 3</tspan></text>
    <text
       xml:space="preserve"
       style="font-style:normal;font-variant:normal;font-weight:normal;font-stretch:normal;font-size:7px;font-family:FreeMono;-inkscape-font-specification:FreeMono;opacity:0.99;fill:#000000;stroke:#000000;stroke-width:0.579001;stroke-linejoin:bevel;paint-order:markers stroke fill"
       x="218.93167"
       y="138.07622"
       id="text934"><tspan
         sodipodi:role="line"
         id="tspan932"
         style="font-size:7px;stroke-width:0.579"
         x="218.93167"
         y="138.07622">Eslab贸n 4</tspan></text>
  </g>
  <g
     inkscape:groupmode="layer"
     id="layer3"
     inkscape:label="flechas">
    <path
       style="opacity:0.99;fill:#000000;stroke:#000000;stroke-width:0.879;stroke-linejoin:bevel;stroke-dasharray:none;marker-end:url(#RoundedArrow);paint-order:markers stroke fill"
       d="m 102.18369,58.230307 14.48005,25.327499"
       id="path991"
       sodipodi:nodetypes="cc" />
    <path
       style="opacity:0.99;fill:#000000;stroke:#000000;stroke-width:0.878999;stroke-linejoin:bevel;stroke-dasharray:none;marker-end:url(#marker1796);paint-order:markers stroke fill"
       d="M 64.580576,147.90982 92.479862,117.43789"
       id="path1792"
       sodipodi:nodetypes="cc" />
    <path
       style="opacity:0.99;fill:#000000;stroke:#000000;stroke-width:0.878999;stroke-linejoin:bevel;stroke-dasharray:none;marker-end:url(#marker1844);paint-order:markers stroke fill"
       d="M 179.14435,106.17759 164.18204,73.256065"
       id="path1840"
       sodipodi:nodetypes="cc" />
    <path
       style="opacity:0.99;fill:#000000;stroke:#000000;stroke-width:0.878999;stroke-linejoin:bevel;stroke-dasharray:none;marker-end:url(#marker1910);paint-order:markers stroke fill"
       d="M 235.0778,123.86358 219.47581,87.078007"
       id="path1906"
       sodipodi:nodetypes="cc" />
  </g>
</svg>
