<?xml version="1.0" encoding="UTF-8" standalone="no"?>
<!-- Created with Inkscape (http://www.inkscape.org/) -->

<svg
   width="210mm"
   height="297mm"
   viewBox="0 0 210 297"
   version="1.1"
   id="svg5"
   sodipodi:docname="cabeza_de_robot.svg"
   inkscape:version="1.2.1 (0f2f062aeb, 2022-09-21, custom)"
   xmlns:inkscape="http://www.inkscape.org/namespaces/inkscape"
   xmlns:sodipodi="http://sodipodi.sourceforge.net/DTD/sodipodi-0.dtd"
   xmlns="http://www.w3.org/2000/svg"
   xmlns:svg="http://www.w3.org/2000/svg">
  <sodipodi:namedview
     id="namedview7"
     pagecolor="#ffffff"
     bordercolor="#000000"
     borderopacity="0.25"
     inkscape:showpageshadow="2"
     inkscape:pageopacity="0.0"
     inkscape:pagecheckerboard="0"
     inkscape:deskcolor="#d1d1d1"
     inkscape:document-units="mm"
     showgrid="false"
     inkscape:zoom="0.72426347"
     inkscape:cx="396.95499"
     inkscape:cy="561.25984"
     inkscape:window-width="1848"
     inkscape:window-height="1016"
     inkscape:window-x="72"
     inkscape:window-y="27"
     inkscape:window-maximized="1"
     inkscape:current-layer="layer1"
     showguides="true">
    <sodipodi:guide
       position="171.02627,224.20932"
       orientation="1,0"
       id="guide3747"
       inkscape:locked="false" />
    <sodipodi:guide
       position="174.56535,214.95931"
       orientation="0,-1"
       id="guide3751"
       inkscape:locked="false" />
  </sodipodi:namedview>
  <defs
     id="defs2" />
  <g
     inkscape:label="Capa 1"
     inkscape:groupmode="layer"
     id="layer1">
    <path
       id="rect155"
       style="fill:#5fbcd3;stroke:#000000;stroke-width:1.62219;stroke-dasharray:none"
       d="M 56.599129 82.85179 L 56.599129 98.152148 L 37.401851 98.152148 L 37.401851 120.77506 L 56.599129 120.77506 L 56.599129 166.08547 L 153.59993 166.08547 L 153.59993 120.77506 L 173.75425 120.77506 L 173.75425 98.152148 L 153.59993 97.80695 L 153.59993 82.85179 L 56.599129 82.85179 z " />
    <circle
       style="fill:#ffffff;stroke:#000000;stroke-width:1.365;stroke-dasharray:none"
       id="path1841"
       cx="78.956421"
       cy="109.46375"
       r="11.31155" />
    <circle
       style="fill:#ffffff;stroke:#000000;stroke-width:1.365;stroke-dasharray:none"
       id="path1843"
       cx="130.02733"
       cy="109.46375"
       r="11.31155" />
    <circle
       style="fill:#000000;stroke:#000000;stroke-width:1.365;stroke-dasharray:none"
       id="path1956"
       cx="74.098633"
       cy="113.92165"
       r="4.5330086" />
    <circle
       style="fill:#000000;stroke:#000000;stroke-width:1.365;stroke-dasharray:none"
       id="path1958"
       cx="125.88128"
       cy="113.92165"
       r="4.8923311" />
    <rect
       style="fill:#ffffff;stroke:#000000;stroke-width:1.34778;stroke-dasharray:none"
       id="rect1960"
       width="69.862434"
       height="15.855702"
       x="68.891266"
       y="138.91808" />
    <path
       style="fill:#ffffff;stroke:#000000;stroke-width:1.365;stroke-dasharray:none"
       d="m 80.204928,139.69167 c 0,15.75601 0,15.75601 0,15.75601 z"
       id="path2068-6" />
    <path
       style="fill:#ffffff;stroke:#000000;stroke-width:1.365;stroke-dasharray:none"
       d="m 85.860908,139.69167 c 0,15.75601 0,15.75601 0,15.75601 z"
       id="path2068-2" />
    <path
       style="fill:#ffffff;stroke:#000000;stroke-width:1.365;stroke-dasharray:none"
       d="m 91.516888,139.69167 c 0,15.75601 0,15.75601 0,15.75601 z"
       id="path2068-3" />
    <path
       style="fill:#ffffff;stroke:#000000;stroke-width:1.365;stroke-dasharray:none"
       d="m 97.172868,139.69167 c 0,15.75601 0,15.75601 0,15.75601 z"
       id="path2068-65" />
    <path
       style="fill:#ffffff;stroke:#000000;stroke-width:1.365;stroke-dasharray:none"
       d="m 103.13998,139.69167 c 0,15.75601 0,15.75601 0,15.75601 z"
       id="path2068-4" />
    <path
       style="fill:#ffffff;stroke:#000000;stroke-width:1.365;stroke-dasharray:none"
       d="m 109.10709,139.69167 c 0,15.75601 0,15.75601 0,15.75601 z"
       id="path2068-42" />
    <path
       style="fill:#ffffff;stroke:#000000;stroke-width:1.365;stroke-dasharray:none"
       d="m 115.0742,139.69167 c 0,15.75601 0,15.75601 0,15.75601 z"
       id="path2068-5" />
    <path
       style="fill:#ffffff;stroke:#000000;stroke-width:1.365;stroke-dasharray:none"
       d="m 121.04131,139.69167 c 0,15.75601 0,15.75601 0,15.75601 z"
       id="path2068-1" />
    <path
       style="fill:#ffffff;stroke:#000000;stroke-width:1.365;stroke-dasharray:none"
       d="m 127.00842,139.69167 c 0,15.75601 0,15.75601 0,15.75601 z"
       id="path2068-41" />
    <path
       style="fill:#ffffff;stroke:#000000;stroke-width:1.365;stroke-dasharray:none"
       d="m 132.97553,139.69167 c 0,15.75601 0,15.75601 0,15.75601 z"
       id="path2068-41-4" />
    <path
       style="fill:#ffffff;stroke:#000000;stroke-width:1.365;stroke-dasharray:none"
       d="m 74.098633,139.69167 c 0,15.75601 0,15.75601 0,15.75601 z"
       id="path2068" />
    <path
       style="fill:#2c89a0;stroke:#000000;stroke-width:1.365;stroke-dasharray:none"
       d="M 56.599129,82.851788 H 153.59993 L 171.02627,72.790687 H 70.999833 L 56.599129,82.85179"
       id="path3739"
       sodipodi:nodetypes="ccccc" />
    <path
       id="path3741"
       style="fill:#164450;stroke:#000000;stroke-width:1.365;stroke-dasharray:none"
       d="M 171.02625 72.790906 L 153.59993 82.85179 L 153.59993 97.002865 L 171.02625 86.941463 L 171.02625 72.790906 z " />
    <path
       id="path3743"
       style="fill:#2c89a0;stroke:#000000;stroke-width:1.365;stroke-dasharray:none"
       d="M 171.02625 86.941463 L 153.59993 97.80695 L 173.75425 98.152148 L 173.68811 97.880847 L 188.75799 86.941463 L 171.02625 86.941463 z " />
    <path
       style="opacity:0.99;fill:#216778;stroke:#000000;stroke-width:1.365;stroke-dasharray:none"
       d="M 37.401851,98.152147 56.599129,87.068593 v 11.083554 z"
       id="path3809" />
    <path
       style="opacity:0.99;fill:#164450;stroke:#000000;stroke-width:1.31372;stroke-dasharray:none"
       d="m 174.11118,98.732213 0.2892,21.825997 16.27353,-11.29139 -0.24511,-22.22707 -16.31765,11.692464"
       id="path4213"
       inkscape:transform-center-x="-0.7313389"
       inkscape:transform-center-y="1.1123018" />
    <path
       style="opacity:0.99;fill:#164450;stroke:#000000;stroke-width:1.365;stroke-dasharray:none"
       d="m 170.94969,120.51199 0.16193,32.61335 -17.36405,12.97517 -0.40197,-44.64268 z"
       id="path4215" />
    <path
       id="rect4269"
       style="opacity:0.99;fill:#d4ff2a;stroke:#000000;stroke-width:0.903898;stroke-dasharray:none"
       d="m 157.55902,27.647689 a 7.9539172,7.333011 81.946936 0 0 -5.9245,2.740135 7.9539172,7.333011 81.946936 0 0 -0.48678,9.369433 l -26.03467,33.503004 -0.64051,-0.559007 a 3.8541586,3.8893305 0 0 0 -0.91444,3.921607 3.8541586,3.8893305 0 0 0 3.01956,2.635677 3.8541586,3.8893305 0 0 0 3.71361,-1.478446 l -0.46674,-0.407135 26.39959,-33.972884 a 7.9539172,7.333011 81.946936 0 0 6.74664,-2.63425 7.9539172,7.333011 81.946936 0 0 -0.99557,-11.201893 7.9539172,7.333011 81.946936 0 0 -4.41619,-1.916241 z" />
    <path
       id="rect4269-6"
       style="opacity:0.99;fill:#d4ff2a;stroke:#000000;stroke-width:0.903898;stroke-dasharray:none"
       d="m 69.028676,27.947894 a 7.333011,7.9539172 8.053064 0 1 5.9245,2.740135 7.333011,7.9539172 8.053064 0 1 0.48678,9.369433 l 26.034674,33.503004 0.64051,-0.559007 a 3.8541586,3.8893305 0 0 1 0.91444,3.921607 3.8541586,3.8893305 0 0 1 -3.01956,2.635677 3.8541586,3.8893305 0 0 1 -3.71361,-1.478446 L 96.76315,77.673162 70.363556,43.700278 a 7.333011,7.9539172 8.053064 0 1 -6.74664,-2.63425 7.333011,7.9539172 8.053064 0 1 0.99557,-11.201893 7.333011,7.9539172 8.053064 0 1 4.41619,-1.916241 z" />
  </g>
</svg>
